<svg id="Layer_1" data-name="Layer 1" xmlns="http://www.w3.org/2000/svg" viewBox="0 0 967 1015"><defs><style>.cls-1{fill:#1c75bc;}.cls-2{fill:#fff;}.cls-3{fill:#231f20;}.cls-4{fill:#ed1c24;}</style></defs><path class="cls-1" d="M63.48,117.71V849.34c30.7,55.52,77.86,104.8,145.94,146.14H525.48v-961H135C92.47,41.32,69.69,70.26,63.48,117.71Z" transform="translate(-63.48 -34.48)"/><path class="cls-2" d="M525.48,564.48H264.66c-20.89,0-43.18-18.86-43.18-43.29V129.84c0-31.22,22.9-45.36,45.26-45.36H525.48Z" transform="translate(-63.48 -34.48)"/><path class="cls-3" d="M221.48,484.48v36.86c0,24.34,22.29,43.14,43.18,43.14H525.48v-80Z" transform="translate(-63.48 -34.48)"/><path class="cls-2" d="M221.48,642.52V914.43a24,24,0,0,0,24,24.05h280v-320h-280A24,24,0,0,0,221.48,642.52Zm213,270h-133v-266h133Z" transform="translate(-63.48 -34.48)"/><path class="cls-4" d="M778,84.48H622.48v965H778c139.44,0,252.49-113.05,252.49-252.49V337C1030.48,197.52,917.43,84.48,778,84.48ZM815.76,711.9a96.66,96.66,0,1,1,96.66-96.66A96.66,96.66,0,0,1,815.76,711.9Z" transform="translate(-63.48 -34.48)"/></svg>